<?xml version="1.0" encoding="UTF-8"?>
<svg version="1.1" xmlns="http://www.w3.org/2000/svg" width="2000" height="1600">
<path d="M0 0 C660 0 1320 0 2000 0 C2000 528 2000 1056 2000 1600 C1340 1600 680 1600 0 1600 C0 1072 0 544 0 0 Z " fill="none" transform="translate(0,0)"/>
<path d="M0 0 C1.17076792 -0.00322445 2.34153585 -0.00644889 3.54778159 -0.00977105 C5.47876167 -0.00744815 5.47876167 -0.00744815 7.44875145 -0.00507832 C8.82943356 -0.00694625 10.21011514 -0.00924689 11.59079587 -0.01194364 C15.38934383 -0.01807108 19.18786981 -0.01792691 22.98642159 -0.01674926 C27.08217014 -0.01654547 31.17791159 -0.02206224 35.27365685 -0.02680683 C43.30297969 -0.0351212 51.3322952 -0.03786211 59.36162199 -0.03841921 C65.89407782 -0.03889439 72.42653122 -0.04094926 78.95898628 -0.04411983 C97.49292006 -0.05293175 116.02684805 -0.05753885 134.56078394 -0.05678936 C135.56041081 -0.0567494 136.56003769 -0.05670945 137.58995628 -0.05666828 C138.59080987 -0.0566274 139.59166345 -0.05658652 140.62284593 -0.0565444 C156.81232352 -0.0561387 173.00177777 -0.06568775 189.19124861 -0.07980665 C205.82750638 -0.09420011 222.4637528 -0.10107507 239.10001695 -0.10021287 C248.43439746 -0.09988173 257.76875355 -0.10259198 267.10312843 -0.11339092 C275.05852379 -0.12253548 283.01388369 -0.12463923 290.96928205 -0.1178815 C295.02209787 -0.11463496 299.07484583 -0.11449111 303.12765503 -0.12323475 C334.30617492 -0.18630265 334.30617492 -0.18630265 349.29503441 2.12863445 C350.45746477 2.30544152 351.61989513 2.48224859 352.81755066 2.66441345 C408.11087343 11.44182071 459.99186161 36.19748455 500.29503441 75.12863445 C500.91587914 75.72756512 501.53672386 76.32649578 502.17638206 76.94357586 C510.08235987 84.61207749 517.58958677 92.36810217 524.29503441 101.12863445 C524.96865013 101.98763348 524.96865013 101.98763348 525.65587425 102.86398602 C560.47385907 147.26650119 582.65468438 203.46805842 584.92003441 260.06613445 C584.95653099 260.91619061 584.99302757 261.76624676 585.03063011 262.64206219 C585.13053492 265.13734274 585.21603333 267.63261354 585.29503441 270.12863445 C585.33757347 271.40996258 585.38011253 272.6912907 585.42394066 274.01144695 C585.72329745 292.81105376 583.90625739 311.42568617 580.42003441 329.87863445 C580.17559593 331.17349773 579.93115746 332.46836102 579.67931175 333.80246258 C572.3991326 370.71897855 557.80079933 407.13163662 536.29503441 438.12863445 C535.80776878 438.83616863 535.32050316 439.54370281 534.81847191 440.27267742 C527.91368863 450.24082052 520.6681568 459.36386601 512.29503441 468.12863445 C511.07773363 469.51665425 509.86834755 470.91168946 508.67003441 472.31613445 C502.37335988 479.53791283 495.56284967 485.92331073 488.07628441 491.8981657 C486.32336619 493.30394703 484.59072065 494.73576206 482.88878441 496.2028532 C460.61217791 515.27191035 433.77083499 529.21820887 406.29503441 539.12863445 C405.63148949 539.37403973 404.96794456 539.619445 404.28429222 539.8722868 C395.30791995 543.17275955 386.24297786 545.39256023 376.90050316 547.33175945 C373.48158099 547.93384089 373.48158099 547.93384089 371.29503441 549.12863445 C376.20759666 555.20730997 381.19307719 561.20873795 386.29503441 567.12863445 C390.61798076 572.14591542 394.85173984 577.22357422 399.02940941 582.36300945 C404.86894133 589.49126566 410.87502096 596.48193945 416.8839016 603.46750164 C421.67261414 609.03555964 426.38773746 614.64966661 431.01769066 620.3512907 C434.03988663 624.03702199 437.12650648 627.66608267 440.21373558 631.29733562 C443.07362936 634.66733761 445.88766423 638.06898701 448.67003441 641.50363445 C451.72419201 645.26259765 454.85587797 648.9375627 458.04747581 652.57931805 C473.42359292 670.13865665 483.74768742 683.92888244 482.29503441 708.12863445 C480.65940883 719.59301924 473.70432955 729.87688121 464.99034691 737.2184782 C453.682428 745.23235117 441.75319655 746.38936546 428.29503441 745.12863445 C415.94637815 742.23420681 407.25024241 733.81755047 399.64269066 724.1169157 C397.10288558 720.88405233 394.46455201 717.75414849 391.79503441 714.62863445 C388.43953522 710.68303024 385.12278883 706.71218013 381.85753441 702.69113445 C377.44357211 697.27006489 372.89720635 691.97021471 368.33800316 686.6716032 C364.07883433 681.71993059 359.86750579 676.72797129 355.65392113 671.73752117 C353.36957259 669.03291161 351.08217559 666.33088243 348.79503441 663.62863445 C346.05526468 660.39160769 343.31607894 657.15409915 340.58019066 653.9137907 C334.35544841 646.54406263 328.09143146 639.20901457 321.80675316 631.8903532 C320.31176946 630.14813706 318.81869175 628.40430781 317.32628441 626.65988445 C311.62491803 619.99718114 305.89903424 613.35661288 300.1507473 606.73434734 C296.51683598 602.54545836 292.90009696 598.34236709 289.29503441 594.12863445 C285.16506178 589.30228574 281.01908407 584.49028563 276.85753441 579.69113445 C276.3253933 579.07721844 275.79325218 578.46330242 275.24498558 577.83078289 C272.38602859 574.53413822 269.52243376 571.24161276 266.65440941 567.9528532 C266.06071556 567.27085857 265.46702171 566.58886395 264.85533714 565.88620281 C263.71567435 564.57715865 262.57462606 563.26931902 261.4319973 561.96286297 C259.22145938 559.42190708 257.16583915 556.93484156 255.29503441 554.12863445 C253.24553958 553.68760981 253.24553958 553.68760981 250.85216331 553.77560711 C249.93005058 553.77195141 249.00793785 553.76829571 248.05788231 553.76452923 C246.55492104 553.77847225 246.55492104 553.77847225 245.02159691 553.79269695 C242.89529186 553.78016918 240.76898977 553.7671314 238.64269066 553.75363445 C235.29443691 553.74972694 231.94648155 553.75351783 228.59825706 553.76828289 C212.33692079 553.81180766 200.01473342 553.30655176 187.29503441 542.12863445 C186.67886253 541.60527508 186.06269066 541.0819157 185.42784691 540.54269695 C177.67267205 533.45320234 172.99093368 522.80527326 172.04503441 512.37082195 C171.73167929 498.30901096 176.35940464 487.58169399 185.92906761 477.32882977 C193.82087061 469.27774267 203.64825879 464.13206606 215.00841331 463.75009441 C217.17940792 463.73296436 219.35056804 463.73184121 221.52159691 463.74386883 C222.71480049 463.73849606 223.90800407 463.73312328 225.13736534 463.7275877 C228.38796634 463.71530355 231.6382706 463.71586808 234.88887978 463.72131824 C238.3149235 463.72311667 241.74086217 463.70563191 245.16686058 463.68954754 C253.87623713 463.6518185 262.58558874 463.63893225 271.29503441 463.62863445 C280.67424304 463.617519 290.05332213 463.60179475 299.43244362 463.55792189 C302.8294317 463.54273178 306.22619825 463.53358416 309.62322044 463.53932476 C323.86072083 463.5564566 337.37785259 463.31843895 351.29503441 460.12863445 C353.10910281 459.77817774 354.92397721 459.43180524 356.74034691 459.0934782 C384.31946414 453.2562332 409.2097398 439.60697815 430.29503441 421.12863445 C430.85835472 420.64362469 431.42167503 420.15861492 432.00206566 419.65890789 C439.23963991 413.41023848 445.45404163 406.69914105 451.29503441 399.12863445 C452.08394066 398.15539227 452.87284691 397.18215008 453.68565941 396.1794157 C464.68100174 382.40066124 473.37593771 367.32392564 480.29503441 351.12863445 C480.70229759 350.19132488 480.70229759 350.19132488 481.11778831 349.23507977 C484.82036254 340.57668197 487.31311454 331.70702857 489.54503441 322.56613445 C489.79140648 321.56195477 490.03777855 320.55777508 490.29161644 319.5231657 C493.56834314 305.50140225 494.73831295 291.72284251 494.73253441 277.37863445 C494.73326958 276.57659588 494.73400475 275.7745573 494.73476219 274.94821453 C494.61053042 222.93307826 471.10999731 177.05446609 434.91222191 140.73800945 C410.29248967 117.53704145 378.24933999 102.65025492 345.29503441 96.12863445 C344.41122786 95.94767538 343.5274213 95.76671631 342.61683273 95.58027363 C330.2532678 93.44432766 317.74309812 93.81743681 305.23719168 93.81196022 C301.70091143 93.8082307 298.16467676 93.79305809 294.62842369 93.77934551 C288.51668474 93.75717928 282.40496223 93.7421024 276.29319191 93.73197842 C267.4568385 93.71733077 258.62054244 93.69177731 249.78422289 93.66364713 C235.4444175 93.6182891 221.10460381 93.58162912 206.76476097 93.55050945 C192.84319668 93.52027873 178.92165265 93.48590783 165.00011253 93.44601727 C163.71076714 93.44232494 163.71076714 93.44232494 162.39537437 93.43855803 C158.08276647 93.42618255 153.7701588 93.41372618 149.45755124 93.40122962 C113.73674016 93.29782654 78.01590543 93.20856924 42.29503441 93.12863445 C42.29550235 93.74273101 42.29597029 94.35682757 42.29645241 94.98953312 C42.3472831 161.83607079 42.39440051 228.68261067 42.42206383 295.52916241 C42.42268508 297.02655451 42.42268508 297.02655451 42.42331889 298.55419696 C42.43229726 320.24822311 42.44060786 341.94224946 42.4482304 363.63627612 C42.45197246 374.27476085 42.45586212 384.91324551 42.45982933 395.55173016 C42.46022161 396.61039679 42.46061388 397.66906343 42.46101805 398.75981088 C42.47380595 433.08469367 42.49634276 467.40956166 42.52392607 501.73443549 C42.55221608 537.00272091 42.57068894 572.27099814 42.57677938 607.53929472 C42.57764386 612.51876197 42.57862078 617.4982292 42.57966614 622.47769642 C42.57996954 623.94776674 42.57996954 623.94776674 42.58027907 625.44753546 C42.58382656 641.23433646 42.59774703 657.02111216 42.61553051 672.80790283 C42.63318079 688.67244178 42.63994121 704.5369556 42.63553854 720.40150403 C42.6332539 729.83112493 42.639366 739.26065397 42.65742704 748.69025831 C42.66866579 754.9872607 42.66903307 761.28420284 42.66052985 767.58120937 C42.65599523 771.17044204 42.65621657 774.75950083 42.66968396 778.34871494 C42.6840822 782.21538435 42.67526303 786.08180343 42.66417789 789.94848824 C42.67599946 791.61924493 42.67599946 791.61924493 42.68805984 793.32375428 C42.60871916 805.52184621 38.37538666 816.29246847 30.18956566 825.49582195 C19.39205856 835.62445693 7.49632033 838.83695775 -6.92371559 838.50363445 C-19.00093351 837.83900768 -28.36237179 830.88891051 -36.45496559 822.37863445 C-45.25622228 811.84163109 -47.00846011 799.61974731 -46.95944118 786.38386345 C-46.96264766 785.10320612 -46.96585414 783.8225488 -46.96915779 782.50308368 C-46.97776899 778.94856057 -46.97395501 775.39414321 -46.96810206 771.8396185 C-46.96392992 767.97241492 -46.97133476 764.10523058 -46.97725457 760.23803169 C-46.98601967 753.46021093 -46.98732758 746.68242039 -46.9837513 739.90459538 C-46.97844721 729.82563488 -46.98453665 719.74670367 -46.99283423 709.66774637 C-47.00808406 690.61995764 -47.00977828 671.57218219 -47.0073112 652.52438863 C-47.00547933 637.81643248 -47.00723593 623.1084807 -47.01153564 608.40052509 C-47.01213804 606.28826462 -47.01273924 604.17600415 -47.01333925 602.06374368 C-47.01424649 598.8808566 -47.01515516 595.69796951 -47.0160716 592.51508243 C-47.02450268 562.91745106 -47.02883576 533.31982134 -47.02466488 503.72218895 C-47.0245085 502.60613498 -47.02435213 501.49008102 -47.02419101 500.34020724 C-47.02338522 494.68346673 -47.02253945 489.02672622 -47.02167771 483.36998572 C-47.02150662 482.24651816 -47.02133553 481.12305061 -47.02115926 479.96553858 C-47.02081261 477.69361361 -47.02046408 475.42168865 -47.02011368 473.14976369 C-47.01475614 437.79643796 -47.02268718 402.44313717 -47.04114723 367.08981609 C-47.06185812 327.3792496 -47.07259168 287.66869856 -47.06857175 247.95812637 C-47.06817639 243.72481462 -47.06781485 239.49150286 -47.06747437 235.25819111 C-47.06738363 234.21582615 -47.0672929 233.17346119 -47.06719942 232.09950942 C-47.06603291 216.3563547 -47.07268586 200.61321556 -47.08328629 184.87006474 C-47.09532825 166.96764909 -47.09690884 149.0652678 -47.08449612 131.16285165 C-47.07785969 121.14262211 -47.07951664 111.12247469 -47.09308463 101.10225169 C-47.10131714 94.40928907 -47.09864719 87.7163881 -47.08710937 81.02343051 C-47.08084105 77.20983447 -47.07928274 73.39639892 -47.0909727 69.58281203 C-47.10345761 65.47205581 -47.09268591 61.36168343 -47.0796957 57.25092888 C-47.08700505 56.070832 -47.09431439 54.89073512 -47.10184523 53.67487773 C-46.99926088 38.05034868 -41.74131206 25.67608607 -30.98621559 14.34738445 C-22.51222368 6.1055567 -12.04256081 0.00837877 0 0 Z " fill="#03122E" transform="translate(382.70496559143066,278.8713655471802)"/>
<path d="M0 0 C0 33.33 0 66.66 0 101 C16.10425781 100.98952637 32.20851563 100.97905273 48.80078125 100.96826172 C59.5535481 100.96156256 70.30631489 100.95490452 81.05908203 100.94869995 C81.74215845 100.94830528 82.42523488 100.94791062 83.12901059 100.94750399 C106.12099967 100.93425552 129.11298914 100.92375344 152.10498047 100.91531372 C152.85526612 100.91503761 153.60555178 100.91476149 154.37857336 100.91447701 C170.68392457 100.90849133 186.98927591 100.90295095 203.29462743 100.89786934 C211.29065659 100.89537465 219.28668573 100.89278154 227.28271484 100.89013672 C228.47627247 100.88974444 228.47627247 100.88974444 229.69394237 100.88934424 C255.48949324 100.88082009 281.28503536 100.86579637 307.08058093 100.84740556 C333.58672724 100.82854243 360.09286869 100.81622959 386.59902159 100.81217002 C390.34200521 100.8115937 394.08498881 100.81094243 397.82797241 100.81024551 C398.56465223 100.81011067 399.30133206 100.80997582 400.06033551 100.80983689 C411.92343334 100.80747257 423.7865162 100.79819407 435.64960792 100.78633593 C447.5732376 100.77456462 459.49685241 100.77006325 471.4204877 100.77299725 C477.88209626 100.77428118 484.34366083 100.7722807 490.80526161 100.76158905 C496.71842166 100.7518761 502.63150801 100.75135241 508.54467142 100.75820221 C510.68612004 100.75904915 512.82757322 100.75649558 514.96901286 100.75023364 C517.87661863 100.7422243 520.78395727 100.74652387 523.69155884 100.75390434 C524.94270885 100.7460233 524.94270885 100.7460233 526.21913463 100.73798305 C538.54077127 100.80880324 549.55242967 105.26800191 558.4375 113.875 C568.43599482 124.62538163 572.71029456 135.77469127 572.2578125 150.5859375 C571.5207156 160.34688736 567.77303168 169.12768408 562 177 C561.29875 177.969375 560.5975 178.93875 559.875 179.9375 C552.60559315 188.40735935 541.93049953 193.53689929 531 195 C527.74544612 195.14348996 524.49447482 195.13952392 521.23715782 195.13422108 C519.76328085 195.13774942 519.76328085 195.13774942 518.25962859 195.14134905 C514.95313447 195.1480285 511.64667974 195.14758114 508.34017944 195.14717102 C505.9511686 195.15047029 503.56215832 195.15419599 501.17314875 195.1583125 C495.28694834 195.16728184 489.400755 195.17155897 483.51454921 195.17383147 C476.46405688 195.17679593 469.4135745 195.18549473 462.36308739 195.19424575 C445.32280918 195.21508026 428.28252924 195.22555805 411.24224126 195.23437535 C403.18045153 195.23858295 395.11866254 195.24380476 387.05687344 195.24905988 C359.4582938 195.26694847 331.85971395 195.28194467 304.26112938 195.28938007 C302.52882124 195.28985483 300.79651311 195.29033072 299.06420497 195.29080774 C298.20514196 195.29104411 297.34607896 195.29128049 296.46098374 195.29152403 C292.10859202 195.29272522 287.75620031 195.29394067 283.40380859 195.29516602 C282.54006626 195.29540617 281.67632392 195.29564632 280.78640758 195.29589374 C252.77931348 195.30378737 224.77226172 195.32722135 196.76518611 195.35972196 C167.15150719 195.39402419 137.53785304 195.41373153 107.92415392 195.41702431 C104.67292252 195.41744185 101.42169113 195.41792141 98.17045975 195.41844749 C97.36992055 195.41857069 96.56938135 195.41869388 95.74458338 195.4188208 C82.86535262 195.42115221 69.98617106 195.43680871 57.10695783 195.45728934 C44.16010932 195.47755083 31.21331987 195.48302309 18.26645844 195.47351871 C10.57705636 195.46830519 2.88785104 195.47417413 -4.8015227 195.49605338 C-10.54661157 195.51116355 -16.29152809 195.50531277 -22.03661291 195.49138286 C-24.35830397 195.48899955 -26.68001396 195.49336765 -29.00167604 195.50521151 C-46.71965138 195.58999249 -60.79326177 194.21329487 -74.51171875 181.7109375 C-84.82275554 170.97382481 -88.32474403 158.98710656 -88.22705078 144.46508789 C-88.22734283 143.32289795 -88.22763489 142.18070801 -88.22793579 141.00390625 C-88.22654684 137.24341125 -88.21100585 133.48311647 -88.1953125 129.72265625 C-88.19158083 127.10949309 -88.18873459 124.49632852 -88.18673706 121.88316345 C-88.18053516 115.71744241 -88.16414192 109.55179277 -88.14403808 103.38610309 C-88.1216388 96.36310986 -88.11067555 89.34011311 -88.10064721 82.31709301 C-88.07977446 67.87802527 -88.0446237 53.43901364 -88 39 C-86.42536414 38.2068655 -84.85004425 37.41508896 -83.27444458 36.62387085 C-82.39726336 36.18280188 -81.52008213 35.7417329 -80.61631966 35.2872982 C-76.85508459 33.43667145 -73.02880205 31.75949628 -69.1796875 30.1015625 C-67.50724848 29.37444177 -65.83488836 28.64713953 -64.16259766 27.91967773 C-63.29918762 27.54511444 -62.43577759 27.17055115 -61.54620361 26.78463745 C-45.76702951 19.93449651 -30.09933099 12.89074421 -14.56201172 5.50830078 C-13.93248596 5.20953537 -13.30296021 4.91076996 -12.65435791 4.60295105 C-10.97757292 3.80598571 -9.30243854 3.00555009 -7.62744141 2.20483398 C-2.81925025 0 -2.81925025 0 0 0 Z " fill="#03122E" transform="translate(1189,1094)"/>
<path d="M0 0 C6.36304521 5.10024433 10.50077106 10.2739471 14.02734375 17.625 C14.38370995 18.32546084 14.74007615 19.02592168 15.10724133 19.7476086 C19.33235089 29.39255336 18.6249462 39.56795956 18.62275696 49.88746643 C18.63668508 52.06361402 18.65230348 54.23975133 18.66946095 56.41587585 C18.71131357 62.38035585 18.7282532 68.34468285 18.74081004 74.30928695 C18.75852952 80.74772764 18.79886506 87.18603555 18.83573914 93.62438965 C18.91656317 108.42500807 18.96069236 123.22565535 18.99835059 138.0264374 C19.0170734 145.34330601 19.03957557 152.66016171 19.06207786 159.97701949 C19.13865026 185.03368709 19.20291542 210.09036205 19.23667622 235.1471262 C19.24531312 241.45282063 19.25405045 247.75851491 19.26293945 254.06420898 C19.26457649 255.23925312 19.26457649 255.23925312 19.2662466 256.43803553 C19.30210748 281.85547732 19.40341728 307.27209048 19.54252881 332.68916224 C19.68536967 358.83538071 19.77341711 384.98116517 19.78826662 411.1277871 C19.79036389 414.82006971 19.79302968 418.51235172 19.79601097 422.20463371 C19.79657116 422.93126828 19.79713135 423.65790285 19.79770852 424.40655665 C19.80821558 436.0970757 19.8754734 447.78660863 19.96333315 459.47677305 C20.05024017 471.22355406 20.07300419 482.96906331 20.03491995 494.71611137 C20.01606349 501.07999659 20.02486128 507.44070039 20.10766983 513.80414391 C20.1828434 519.630555 20.17953287 525.4514642 20.11377408 531.2779405 C20.10381087 533.38484351 20.12260814 535.49211991 20.17307297 537.59844203 C20.51727065 552.90952844 20.51727065 552.90952844 16.38525878 557.4158297 C12.34869077 560.59374559 7.93812188 562.73062253 3.21204879 564.68907558 C-0.22938587 566.16338112 -3.45131027 568.00881721 -6.71875 569.828125 C-7.98624782 570.50166901 -9.25533643 571.17223548 -10.52661133 571.83862305 C-13.90638245 573.61079995 -17.28227997 575.39013401 -20.65647888 577.17289734 C-22.05482899 577.91168601 -23.45339723 578.65006195 -24.85218811 579.38801575 C-31.68276493 582.99334301 -38.48691173 586.64658978 -45.28515625 590.3125 C-46.82030884 591.13959473 -46.82030884 591.13959473 -48.38647461 591.98339844 C-49.35979736 592.50836914 -50.33312012 593.03333984 -51.3359375 593.57421875 C-52.26486816 594.0748584 -53.19379883 594.57549805 -54.15087891 595.09130859 C-56.13022661 596.16712294 -58.10336682 597.25439978 -60.07177734 598.35009766 C-61.55991943 599.17646729 -61.55991943 599.17646729 -63.078125 600.01953125 C-64.41653442 600.76940308 -64.41653442 600.76940308 -65.78198242 601.53442383 C-67.97265625 602.625 -67.97265625 602.625 -69.97265625 602.625 C-70.05826052 548.08511669 -70.137862 493.54522702 -70.18437195 439.0052948 C-70.18540738 437.79420289 -70.18540738 437.79420289 -70.18646372 436.55864447 C-70.20142877 419.01117253 -70.2152796 401.46369986 -70.2279829 383.91622614 C-70.2342195 375.31076844 -70.24070228 366.70531093 -70.24731445 358.09985352 C-70.24796825 357.24351368 -70.24862204 356.38717384 -70.24929565 355.50488431 C-70.27059687 327.75568556 -70.30814929 300.00653777 -70.35414235 272.25736988 C-70.401326 243.73804107 -70.43208827 215.21874044 -70.4422312 186.69937325 C-70.44367194 182.66987412 -70.44530013 178.64037509 -70.44704247 174.61087608 C-70.44737958 173.81782421 -70.4477167 173.02477233 -70.44806403 172.20768858 C-70.45396928 159.44918517 -70.47715055 146.69076901 -70.50681642 133.93230116 C-70.53628161 121.10120211 -70.54748891 108.27018943 -70.54016314 95.43905775 C-70.53636445 87.81872245 -70.54646083 80.19870366 -70.57664397 72.57842561 C-70.59765954 66.88273321 -70.59243122 61.18730241 -70.57715072 55.49160286 C-70.57504041 53.19124358 -70.58136355 50.89085749 -70.59707216 48.59055088 C-70.71236071 30.66272797 -68.87330269 17.80983462 -55.875 4.47265625 C-39.97779487 -10.58342691 -18.10735663 -13.09754549 0 0 Z " fill="#03122D" transform="translate(1170.97265625,287.375)"/>
<path d="M0 0 C1.0828125 0.36222656 2.165625 0.72445313 3.28125 1.09765625 C28.37441215 9.91013581 48.16947115 28.26366239 60 52 C71.59727234 77.92650743 71.76195352 105.42946435 62 132 C51.6513182 157.61372876 31.35270919 177.04719306 6.18261719 188.12744141 C-18.37891861 197.94656097 -44.46198509 197.42592922 -68.8125 187.47265625 C-78.81611222 182.85088933 -87.63543148 177.19059399 -96 170 C-96.67289063 169.47148438 -97.34578125 168.94296875 -98.0390625 168.3984375 C-116.32805941 153.606938 -126.92133123 129.13506317 -129.77294922 106.27685547 C-132.42239917 79.7082853 -124.53789102 53.20796373 -107.69799805 32.40917969 C-95.08994179 17.51671563 -79.33626363 6.71468809 -61 0 C-59.32357422 -0.62261719 -59.32357422 -0.62261719 -57.61328125 -1.2578125 C-39.87158402 -6.74335348 -17.35346778 -6.68283797 0 0 Z " fill="#4452E1" transform="translate(338,1194)"/>
<path d="M0 0 C0.83015625 0.3403125 1.6603125 0.680625 2.515625 1.03125 C15.52900856 6.93916646 24.2452173 17.44937593 29.2734375 30.67578125 C33.02951497 42.69119036 32.20168579 56.62131233 27 68 C26.649375 68.78503906 26.29875 69.57007813 25.9375 70.37890625 C19.74054372 82.7513016 9.57560311 90.91792724 -3.28125 95.671875 C-8.07367986 97.20462973 -12.49967337 97.41446425 -17.5 97.3125 C-18.29019531 97.31572266 -19.08039063 97.31894531 -19.89453125 97.32226562 C-33.93676741 97.19586252 -44.59808499 91.9862413 -54.77734375 82.35546875 C-66.1675087 70.28469641 -68.58749868 57.51074767 -68.3359375 41.51171875 C-67.81711935 28.79209846 -60.44428295 18.03959286 -51.5 9.3125 C-37.17095341 -2.47613793 -17.52114508 -7.29067782 0 0 Z " fill="#B6B6F5" transform="translate(1790,376)"/>
<path d="M0 0 C11.18418982 7.72671178 18.96405321 18.46039219 22.68359375 31.671875 C23.7357299 40.75195407 23.85749843 49.74130274 19.96875 58.1328125 C19.54335938 59.09960938 19.11796875 60.06640625 18.6796875 61.0625 C12.73640831 73.8071789 3.90420572 82.80744517 -9.40625 88.0703125 C-22.91470464 92.02968713 -36.98160148 91.33064525 -49.53125 85.0703125 C-62.37256914 77.83956971 -69.62729014 67.34469209 -74.21875 53.5703125 C-77.15004597 40.61749183 -74.58422458 28.76406753 -67.90625 17.5078125 C-52.30772631 -5.60605987 -24.69962268 -15.2144583 0 0 Z " fill="#4352E1" transform="translate(551.03125,1205.8671875)"/>
<path d="M0 0 C0.87180908 0.00572021 1.74361816 0.01144043 2.6418457 0.01733398 C16.83471387 0.40666453 26.94922815 6.72816548 36.5 16.8125 C46.03573534 27.96285188 48.14393054 40.19711133 47.25 54.5 C45.42649886 65.7781247 38.82803415 77.04024694 30.25 84.5 C18.53093753 92.57187536 6.66938257 97.03507781 -7.75 95.5 C-20.65657279 92.65862763 -31.50458648 85.81366106 -39.75 75.5 C-47.52099223 63.32291723 -49.9748776 49.49035922 -47.1015625 35.296875 C-42.7412683 22.25325988 -33.18274959 11.79679178 -21.53515625 4.82421875 C-14.3898871 1.42695894 -7.91051904 -0.06085607 0 0 Z " fill="#4452E1" transform="translate(695.75,1154.5)"/>
<path d="M0 0 C9.58172925 7.46381654 17.02475642 16.79507146 19.5625 28.99609375 C19.8021373 32.07652232 19.79346227 35.15722262 19.8125 38.24609375 C19.833125 39.06722656 19.85375 39.88835937 19.875 40.734375 C19.91118957 46.443279 18.92337462 50.81488421 16.5625 55.99609375 C15.99789062 57.32640625 15.99789062 57.32640625 15.421875 58.68359375 C9.7727781 70.45917601 1.1270603 78.71967016 -11.1875 83.37109375 C-23.33713639 87.55435179 -35.72301901 87.29512743 -47.4375 81.99609375 C-58.08509821 76.54949331 -67.12317839 68.34842485 -71.4375 56.99609375 C-71.73398437 56.27292969 -72.03046875 55.54976562 -72.3359375 54.8046875 C-76.46247177 43.31475035 -75.53004962 30.98209841 -70.4375 19.99609375 C-63.06293898 5.61863394 -51.49665331 -2.77382269 -36.36328125 -7.67578125 C-23.63181045 -9.84503794 -10.56103084 -7.38351138 0 0 Z " fill="#4352E1" transform="translate(882.4375,1106.00390625)"/>
<path d="M0 0 C1.13115234 0.54527344 1.13115234 0.54527344 2.28515625 1.1015625 C14.08866551 7.21022338 21.5505375 16.2525008 26.2734375 28.67578125 C30.02918843 40.69014579 28.51629388 53.41655257 22.875 64.5625 C15.9786726 76.04951699 6.43777647 83.36631857 -6 88 C-18.04915413 90.97015862 -29.95809747 89.45876283 -41 84 C-52.4453409 77.04302808 -59.94075739 66.74069316 -64.3125 54.25 C-66.69419828 42.78085099 -65.37902758 31.32605088 -59.3515625 21.2421875 C-57.64946712 18.75222264 -55.86127718 16.37238304 -54 14 C-53.2575 12.948125 -52.515 11.89625 -51.75 10.8125 C-38.99908022 -2.22821341 -16.98287915 -8.54269575 0 0 Z " fill="#404FE0" transform="translate(1022,1038)"/>
<path d="M0 0 C7.68017026 6.99900217 13.88821764 17.54753509 14.41015625 28.01953125 C14.68618199 43.49365533 12.23359829 55.21847035 1.76171875 67.10546875 C-10.6680964 78.08995655 -21.2687783 82.21592115 -37.92578125 81.48046875 C-49.19534823 80.38928845 -59.44016351 73.7394544 -66.92578125 65.48046875 C-69.19586428 62.27155488 -71.1040535 58.95991019 -72.92578125 55.48046875 C-73.52390625 54.40796875 -74.12203125 53.33546875 -74.73828125 52.23046875 C-78.60152544 43.28400852 -78.35360227 30.19790724 -76.01953125 20.8515625 C-73.57327192 14.71239245 -70.25680782 9.45032174 -65.92578125 4.48046875 C-65.47203125 3.89910156 -65.01828125 3.31773437 -64.55078125 2.71875 C-60.69091179 -1.7542758 -56.06548473 -4.26689367 -50.86328125 -6.89453125 C-49.83581787 -7.41370117 -49.83581787 -7.41370117 -48.78759766 -7.94335938 C-32.34408872 -15.86928158 -13.83131671 -10.91355416 0 0 Z " fill="#3E4DDF" transform="translate(1174.92578125,972.51953125)"/>
<path d="M0 0 C1.41549447 1.03616232 2.81276656 2.09783725 4.1875 3.1875 C4.79078125 3.64253906 5.3940625 4.09757813 6.015625 4.56640625 C13.38183353 10.92059064 19.21561005 22.53516826 20.1875 32.1875 C21.07501499 46.14006129 18.13636802 57.71351424 8.9375 68.4375 C-0.19993055 78.04158681 -10.50132798 83.13448886 -23.82519531 83.71118164 C-38.08855001 83.93378405 -48.134121 79.38037528 -58.48828125 69.60546875 C-68.58556103 58.88200108 -70.38011036 46.75576752 -70.13671875 32.73046875 C-69.6073154 19.82383117 -62.91111597 11.62371673 -53.8125 3.1875 C-38.12816256 -9.39471374 -17.1011705 -10.7386138 0 0 Z " fill="#9498EF" transform="translate(1566.8125,680.8125)"/>
<path d="M0 0 C9.0353627 6.34197902 15.59788717 16.45225801 18 27.2890625 C19.662617 42.70983514 16.05459599 55.03922368 6.3125 67.1875 C-1.24312521 75.2917702 -11.32942035 80.52419303 -22.4140625 81.5234375 C-37.98801962 81.67948917 -48.92994922 77.87341226 -60.71484375 67.3828125 C-69.17147554 58.75963873 -72.26648843 48.33078845 -72.375 36.5625 C-72.17061366 24.06049879 -68.39062279 14.29858167 -59.6875 5.1875 C-42.09243778 -11.67443463 -20.10989603 -12.65303861 0 0 Z " fill="#5F6BE7" transform="translate(1307.6875,890.8125)"/>
<path d="M0 0 C12.34556294 6.8974503 19.90730209 17.02850886 24.37890625 30.38671875 C25.964535 39.31801539 25.6260135 49.3022438 21.76171875 57.54296875 C21.40980469 58.36152344 21.05789063 59.18007813 20.6953125 60.0234375 C15.40108674 71.5728871 7.33664274 78.96744694 -4.4140625 83.8671875 C-16.80509438 88.09646186 -28.13051703 87.54788973 -40.08984375 82.2890625 C-51.44123509 76.55082473 -57.28420092 69.13335605 -62.23828125 57.54296875 C-62.57988281 56.79144531 -62.92148438 56.03992188 -63.2734375 55.265625 C-67.11574034 45.66880348 -66.17683466 34.92292018 -62.55859375 25.421875 C-56.18445043 11.52322522 -47.15573571 3.58222451 -33.23828125 -2.45703125 C-23.06963102 -5.84658133 -9.55092392 -4.36578725 0 0 Z " fill="#9EA1F1" transform="translate(1680.23828125,548.45703125)"/>
<path d="M0 0 C5.30385725 4.2897354 8.63604509 9.33849643 11.66796875 15.40234375 C12.08304688 16.211875 12.498125 17.02140625 12.92578125 17.85546875 C17.43660997 28.13889646 17.59433864 40.39251302 13.61328125 50.86108398 C7.90433986 64.06143216 -1.21004266 72.86604831 -14.58203125 78.21484375 C-26.14352602 81.87598376 -37.24880348 81.37754959 -48.33203125 76.40234375 C-53.69411469 73.43694912 -58.22246162 69.96853223 -62.33203125 65.40234375 C-63.17765625 64.47421875 -64.02328125 63.54609375 -64.89453125 62.58984375 C-73.74062371 51.76868034 -74.66757497 38.82620018 -73.33203125 25.40234375 C-70.59334556 13.94632369 -62.79100531 4.2243736 -53.33203125 -2.59765625 C-35.55777219 -13.13365573 -16.85380781 -11.54641105 0 0 Z " fill="#777FEA" transform="translate(1445.33203125,794.59765625)"/>
<path d="M0 0 C-1.50232109 3.44511328 -3.52405659 5.87002875 -6.0625 8.625 C-8.85780458 11.58789167 -8.85780458 11.58789167 -11 15 C-11.66 15 -12.32 15 -13 15 C-11.58581617 10.73439116 -9.51748869 7.9940014 -6.5 4.6875 C-5.7059375 3.80449219 -4.911875 2.92148438 -4.09375 2.01171875 C-2 0 -2 0 0 0 Z " fill="#4E5CE4" transform="translate(827,1109)"/>
<path d="M0 0 C0 3.58912412 -0.66436554 4.10857029 -3 6.6875 C-3.556875 7.31011719 -4.11375 7.93273437 -4.6875 8.57421875 C-5.120625 9.04472656 -5.55375 9.51523437 -6 10 C-6.66 9.67 -7.32 9.34 -8 9 C-6.85459775 7.68712379 -5.70866567 6.37470979 -4.5625 5.0625 C-3.92441406 4.33160156 -3.28632812 3.60070312 -2.62890625 2.84765625 C-1.77458541 1.87860647 -0.91348825 0.91348825 0 0 Z " fill="#101D36" transform="translate(1117,290)"/>
<path d="M0 0 C1 4 1 4 -0.4375 6.75 C-1.2109375 7.86375 -1.2109375 7.86375 -2 9 C-2.99 8.67 -3.98 8.34 -5 8 C-3.35 5.36 -1.7 2.72 0 0 Z " fill="#202D47" transform="translate(849,657)"/>
<path d="M0 0 C0.66 0.33 1.32 0.66 2 1 C2 1.99 2 2.98 2 4 C2.99 4.33 3.98 4.66 5 5 C3.02 5.66 1.04 6.32 -1 7 C-0.67 4.69 -0.34 2.38 0 0 Z " fill="#131F3A" transform="translate(1102,883)"/>
<path d="M0 0 C-0.33 0.99 -0.66 1.98 -1 3 C-3.5625 4.1875 -3.5625 4.1875 -6 5 C-6.66 4.34 -7.32 3.68 -8 3 C-2.25 0 -2.25 0 0 0 Z " fill="#1D2A45" transform="translate(1184,1096)"/>
<path d="M0 0 C0.33 0.99 0.66 1.98 1 3 C-0.65 4.65 -2.3 6.3 -4 8 C-4.66 7.67 -5.32 7.34 -6 7 C-4.02 4.69 -2.04 2.38 0 0 Z " fill="#18243E" transform="translate(350,295)"/>
</svg>
